<svg width="24" height="24" viewBox="0 0 24 24" fill="none" xmlns="http://www.w3.org/2000/svg">
<path d="M15.8293 3.00012H4.26172C3.01445 3.00012 2 4.01458 2 5.26184V15.3986C2 15.8786 2.54293 16.1493 2.92617 15.8755L6.14766 13.5771C6.41797 13.3845 6.73594 13.2825 7.06797 13.2825H14.1535C15.4008 13.2825 16.4152 12.2681 16.4152 11.0208V3.58606C16.4152 3.26262 16.1527 3.00012 15.8293 3.00012ZM12.9832 10.0982H6.21328C5.88984 10.0982 5.62734 9.83606 5.62734 9.51223C5.62734 9.18879 5.88984 8.92629 6.21328 8.92629H12.9832C13.3066 8.92629 13.5691 9.18879 13.5691 9.51223C13.5691 9.83606 13.3066 10.0982 12.9832 10.0982ZM12.9832 7.36379H6.21328C5.88984 7.36379 5.62734 7.10168 5.62734 6.77786C5.62734 6.45442 5.88984 6.19192 6.21328 6.19192H12.9832C13.3066 6.19192 13.5691 6.45442 13.5691 6.77786C13.5691 7.10168 13.3066 7.36379 12.9832 7.36379Z" fill="#AFAFAF"/>
<path d="M21.9999 9.80666V19.943C21.9999 20.4198 21.4598 20.6956 21.0738 20.4199L17.8523 18.1219C17.582 17.9293 17.264 17.8274 16.932 17.8274H9.84644C8.59917 17.8274 7.58472 16.8125 7.58472 15.5653V14.4543H14.1535C16.0468 14.4543 17.5871 12.9141 17.5871 11.0207V7.54456H19.7382C20.9855 7.54456 21.9999 8.5594 21.9999 9.80666Z" fill="#AFAFAF"/>
</svg>
