<svg width="18" height="18" viewBox="0 0 18 18" fill="none" xmlns="http://www.w3.org/2000/svg">
<g clip-path="url(#clip0_23_1733)">
<path d="M10.4814 4.8046C8.29946 4.34719 6.59399 2.64172 6.13664 0.459714C6.10938 0.32974 6.03822 0.213106 5.93512 0.129395C5.83202 0.0456849 5.70326 -4.1229e-06 5.57046 2.79046e-10C5.43765 4.12346e-06 5.3089 0.0457012 5.2058 0.129418C5.10271 0.213135 5.03156 0.329774 5.0043 0.459749C4.54691 2.64172 2.84145 4.34715 0.659477 4.8045C0.529521 4.83178 0.412906 4.90294 0.329209 5.00603C0.245512 5.10912 0.199829 5.23787 0.199829 5.37066C0.199829 5.50344 0.245512 5.63219 0.329209 5.73528C0.412906 5.83837 0.529521 5.90953 0.659477 5.93681C2.84141 6.39423 4.54681 8.09966 5.00419 10.2816C5.03144 10.4116 5.10258 10.5283 5.20568 10.612C5.30877 10.6957 5.43754 10.7414 5.57035 10.7414C5.70316 10.7414 5.83192 10.6957 5.93502 10.612C6.03811 10.5283 6.10926 10.4116 6.1365 10.2816C6.59392 8.09966 8.29942 6.39423 10.4814 5.93692C10.6114 5.90967 10.728 5.83853 10.8118 5.73544C10.8955 5.63235 10.9412 5.50358 10.9412 5.37078C10.9412 5.23797 10.8955 5.1092 10.8118 5.0061C10.7281 4.90301 10.6114 4.83186 10.4814 4.8046ZM9.52518 14.3607C8.49714 14.1453 7.69361 13.3417 7.47807 12.3136C7.45082 12.1836 7.37968 12.067 7.27659 11.9833C7.1735 11.8995 7.04473 11.8538 6.91193 11.8538C6.77912 11.8538 6.65035 11.8995 6.54725 11.9832C6.44415 12.067 6.37301 12.1836 6.34575 12.3136C6.13021 13.3417 5.32665 14.1452 4.29861 14.3607C4.16865 14.388 4.05203 14.4591 3.96834 14.5622C3.88464 14.6653 3.83896 14.7941 3.83896 14.9269C3.83896 15.0597 3.88464 15.1884 3.96834 15.2915C4.05203 15.3946 4.16865 15.4657 4.29861 15.493C5.32661 15.7085 6.13018 16.5121 6.34568 17.5402C6.37293 17.6702 6.44408 17.7868 6.54717 17.8705C6.65027 17.9543 6.77903 18 6.91184 18C7.04465 18 7.17342 17.9543 7.27651 17.8705C7.3796 17.7868 7.45075 17.6702 7.478 17.5402C7.69354 16.5121 8.49711 15.7086 9.52518 15.4931C9.65514 15.4658 9.77175 15.3946 9.85545 15.2915C9.93915 15.1884 9.98483 15.0597 9.98483 14.9269C9.98483 14.7941 9.93915 14.6654 9.85545 14.5623C9.77175 14.4592 9.65514 14.388 9.52518 14.3607ZM17.3406 9.00472C15.951 8.71342 14.8649 7.6273 14.5737 6.23775C14.5464 6.10776 14.4753 5.99111 14.3722 5.90738C14.2691 5.82366 14.1403 5.77795 14.0075 5.77795C13.8747 5.77794 13.7459 5.82364 13.6428 5.90736C13.5397 5.99108 13.4686 6.10773 13.4413 6.23771C13.15 7.6273 12.064 8.71338 10.6744 9.00465C10.5444 9.03193 10.4278 9.10309 10.3441 9.20618C10.2604 9.30927 10.2147 9.43802 10.2147 9.57081C10.2147 9.7036 10.2604 9.83234 10.3441 9.93543C10.4278 10.0385 10.5444 10.1097 10.6744 10.137C12.0639 10.4283 13.15 11.5144 13.4413 12.9039C13.4685 13.0339 13.5397 13.1506 13.6428 13.2343C13.7459 13.318 13.8746 13.3637 14.0074 13.3637C14.1402 13.3637 14.269 13.318 14.3721 13.2343C14.4752 13.1506 14.5463 13.0339 14.5736 12.9039C14.8649 11.5144 15.951 10.4283 17.3406 10.137C17.4705 10.1098 17.5872 10.0386 17.6709 9.93556C17.7546 9.83247 17.8004 9.7037 17.8004 9.57089C17.8004 9.43808 17.7547 9.30932 17.6709 9.20622C17.5872 9.10312 17.4706 9.03197 17.3406 9.00472Z" fill="white"/>
</g>
<defs>
<clipPath id="clip0_23_1733">
<rect width="18" height="18" fill="white"/>
</clipPath>
</defs>
</svg>
