<svg width="24" height="24" viewBox="0 0 24 24" fill="none" xmlns="http://www.w3.org/2000/svg">
<path d="M12 2C6.47773 2 2 6.47685 2 11.9996C2 17.5223 6.47729 21.9991 12 21.9991C17.5231 21.9991 22 17.5223 22 11.9996C22 6.47685 17.5231 2 12 2ZM12 4.98998C12.8772 4.98993 13.7185 5.33834 14.3389 5.95859C14.9592 6.57884 15.3077 7.42011 15.3078 8.29733C15.3078 9.17455 14.9594 10.0159 14.3392 10.6362C13.7189 11.2565 12.8777 11.6051 12.0004 11.6051C11.1232 11.6052 10.2819 11.2568 9.66157 10.6365C9.04124 10.0163 8.69271 9.17499 8.69266 8.29777C8.6926 7.42055 9.04102 6.57923 9.66126 5.9589C10.2815 5.33857 11.1228 4.99004 12 4.98998ZM11.9978 19.3847C10.2455 19.3867 8.55029 18.7616 7.21875 17.6224C7.06379 17.4902 6.93933 17.3259 6.85395 17.141C6.76856 16.956 6.72428 16.7548 6.72415 16.5511C6.72415 14.6988 8.22332 13.2163 10.0761 13.2163H13.9248C15.778 13.2163 17.2715 14.6988 17.2715 16.5511C17.2716 16.7547 17.2275 16.956 17.1421 17.1409C17.0568 17.3258 16.9323 17.4899 16.7773 17.622C15.4458 18.7616 13.7504 19.3869 11.9978 19.3847Z" fill="#0D80E1"/>
</svg>
